<?xml version="1.0" standalone="no"?>
<svg xmlns="http://www.w3.org/2000/svg" viewBox="0 0 132 71" width="132" height="71"><g fill="#d29494" color="#d29494" transform="translate(44 0) scale(0.44) "><svg width="100.0" height="100.0" x="0.0" y="0.0" viewBox="0 0 100 100"><g transform="translate(0,-952.36218)"><path style="baseline-shift:baseline;block-progression:tb;color:#000000;direction:ltr;text-indent:0;enable-background:accumulate;text-transform:none;" fill="currentColor" d="M26.25,10.938c-0.515,0-1,0.508-1,1.25v0.468c0,0.742,0.485,1.219,1,1.219h47.5c0.515,0,1-0.477,1-1.219v-0.468c0-0.742-0.485-1.25-1-1.25h-47.5zm1.406,4.437v16.344a0.75008,0.75008,0,0,1,0,0.125v3.531a0.75008,0.75008,0,0,1,0,0.125v22.219a0.75008,0.75008,0,0,1,0,0.125,0.75008,0.75008,0,0,1,0,0.125v3.406a0.75008,0.75008,0,0,1,0,0.125v23.156h15.438v-18.687c0-0.946,0.179-1.883,0.531-2.719,0.35-0.83,0.849-1.537,1.469-2.156,0.619-0.619,1.379-1.178,2.218-1.532,0.836-0.351,1.742-0.5,2.688-0.5s1.852,0.149,2.688,0.5c0.846,0.357,1.578,0.922,2.187,1.532,0.609,0.609,1.143,1.31,1.5,2.156,0.352,0.836,0.531,1.773,0.531,2.719v18.687h15.438v-23.125a0.75008,0.75008,0,0,1,0,-0.156,0.75008,0.75008,0,0,1,0,-0.125v-3.25a0.75008,0.75008,0,0,1,0,-0.156v-22.313a0.75008,0.75008,0,0,1,0,-0.156v-0.063-3.468-16.469h-44.688zm3.969,6.687h4.937v4.938h-4.937v-4.938zm16,0h4.937v4.938h-4.937v-4.938zm16,0h4.937v4.938h-4.937v-4.938zm-50.469,10.532c-0.758,0-1.394,0.039-1.687,0.156-0.147,0.059-0.204,0.085-0.25,0.156s-0.094,0.226-0.094,0.5v0.375c0,0.367,0.082,0.406,0.406,0.563,0.325,0.157,0.917,0.281,1.625,0.281h13v-2.031h-13zm60.688,0v2.031h12.594,1.687c0.753,0,1.393-0.065,1.687-0.187,0.295-0.123,0.344-0.108,0.344-0.657v-0.375c0-0.489-0.04-0.496-0.344-0.625-0.303-0.128-0.944-0.187-1.687-0.187h-14.281zm-42.219,3.468h4.937v4.938h-4.937v-4.938zm16,0h4.937v4.938h-4.937v-4.938zm16,0h4.937v4.938h-4.937v-4.938zm-48.031,0.063v20.969h10.562v-20.969h-10.562zm58.25,0v20.969h11.844v-20.969h-11.844zm-42.219,13.937h4.937v4.938h-4.937v-4.938zm16,0h4.937v4.938h-4.937v-4.938zm16,0h4.937v4.938h-4.937v-4.938zm-50.469,8.532c-0.758,0-1.394,0.039-1.687,0.156-0.147,0.058-0.204,0.085-0.25,0.156s-0.094,0.226-0.094,0.5v0.375c0,0.367,0.082,0.406,0.406,0.563,0.325,0.157,0.917,0.281,1.625,0.281h13v-2.031h-13zm60.688,0v2.031h12.594,1.687c0.753,0,1.393-0.065,1.687-0.187,0.295-0.123,0.344-0.109,0.344-0.657v-0.375c0-0.489-0.04-0.496-0.344-0.625-0.303-0.128-0.944-0.187-1.687-0.187h-1.687-12.594zm-23.844,1.968c-0.76,0-1.486,0.138-2.125,0.407-0.635,0.267-1.226,0.694-1.719,1.187s-0.885,1.043-1.156,1.688c-0.202,0.479-0.324,1.007-0.375,1.562-0.017,0.185-0.031,0.373-0.031,0.563v18.687h10.812v-18.687c0-0.761-0.137-1.486-0.406-2.125-0.265-0.628-0.684-1.185-1.188-1.688-0.503-0.503-1.059-0.923-1.687-1.187-0.639-0.269-1.365-0.407-2.125-0.407zm-34.406,1.563v22.531h10.562v-22.531h-10.562zm58.25,0v22.531h11.844v-22.531h-11.844zm-62.782,24.031c-0.695,0-1.2182,0.524-1.2182,1.219v0.469c0,0.695,0.5232,1.218,1.2182,1.218h77.376c0.695,0,1.218-0.523,1.218-1.218v-0.469c0-0.695-0.523-1.219-1.218-1.219h-77.376z" transform="translate(0,952.36218)"></path></g></svg></g><path fill="#0b0c0c" fill-rule="nonzero" d="M4.82 14.84Q4.46 14.98 4.22 14.86Q3.98 14.74 3.98 14.54Q3.98 14.35 4.10 14.10Q4.22 13.85 4.32 13.61L4.32 13.61Q4.56 13.03 4.13 12.72L4.13 12.72Q3.62 12.38 3.12 12.38Q2.62 12.38 2.17 12.80Q1.73 13.22 1.73 13.97L1.73 13.97Q1.73 15.05 2.78 16.04Q3.84 17.04 5.66 17.04Q7.49 17.04 8.70 15.96Q9.91 14.88 9.91 13.32L9.91 13.32Q9.91 11.21 6.74 9.60L6.74 9.60Q6.58 9.50 6 9.23Q5.42 8.95 5.21 8.83Q4.99 8.71 4.50 8.45Q4.01 8.18 3.73 7.99Q3.46 7.80 3.07 7.54L3.07 7.54Q2.50 7.15 1.85 6.43L1.85 6.43Q0.94 5.33 0.94 3.83Q0.94 2.33 2.40 1.16Q3.86 0 5.84 0Q7.82 0 9.22 0.74Q10.61 1.49 10.61 2.42L10.61 2.42Q10.61 3 10.13 3.19L10.13 3.19Q9.96 3.24 9.70 3.24Q9.43 3.24 9.18 3.07Q8.93 2.90 8.60 2.62Q8.28 2.33 8.02 2.16L8.02 2.16Q7.30 1.68 6.05 1.68Q4.80 1.68 3.83 2.33Q2.86 2.98 2.86 3.92Q2.86 4.87 3.77 5.69L3.77 5.69Q4.58 6.41 6.34 7.36Q8.09 8.30 8.66 8.66L8.66 8.66Q10.08 9.50 10.96 10.72Q11.83 11.93 11.83 13.32L11.83 13.32Q11.83 15.53 10.12 17.12Q8.40 18.72 5.74 18.72Q3.07 18.72 1.54 17.33Q0 15.94 0 14.26Q0 12.58 0.89 11.65Q1.78 10.73 3.12 10.73Q4.46 10.73 5.18 11.40Q5.90 12.07 5.90 12.94Q5.90 13.80 5.45 14.35L5.45 14.35Q5.18 14.71 4.82 14.84ZM13.92 8.83L13.92 8.83Q13.99 7.99 14.57 7.99L14.57 7.99Q14.95 7.99 15.55 8.38L15.55 8.38L15.41 1.34Q15.41 0.82 15.70 0.47Q15.98 0.12 16.39 0.12Q16.80 0.12 17.09 0.46Q17.38 0.79 17.38 1.34Q17.38 1.90 17.32 3.41Q17.26 4.92 17.26 9.02L17.26 9.02Q18.29 9.38 20.02 9.38L20.02 9.38Q23.86 9.38 25.73 7.03L25.73 7.03L25.61 1.73Q25.61 0.12 26.66 0.12L26.66 0.12Q27.50 0.12 27.67 0.86L27.67 0.86Q27.86 1.56 27.86 3.13Q27.86 4.70 27.41 7.87L27.41 7.87L27.58 17.38Q27.60 18.12 27.10 18.43L27.10 18.43Q26.86 18.60 26.59 18.60L26.59 18.60L26.09 18.43Q25.58 18.12 25.61 17.38L25.61 17.38L25.75 10.08L25.75 9.31Q24.84 10.08 23.17 10.54Q21.50 10.99 19.98 10.99Q18.46 10.99 17.26 10.75L17.26 10.75L17.38 17.38Q17.40 18.12 16.90 18.43L16.90 18.43Q16.63 18.60 16.39 18.60L16.39 18.60L15.89 18.43Q15.38 18.12 15.41 17.38L15.41 17.38L15.50 10.34Q13.92 9.82 13.92 8.83ZM35.93 14.84Q35.57 14.98 35.33 14.86Q35.09 14.74 35.09 14.54Q35.09 14.35 35.21 14.10Q35.33 13.85 35.42 13.61L35.42 13.61Q35.66 13.03 35.23 12.72L35.23 12.72Q34.73 12.38 34.22 12.38Q33.72 12.38 33.28 12.80Q32.83 13.22 32.83 13.97L32.83 13.97Q32.83 15.05 33.89 16.04Q34.94 17.04 36.77 17.04Q38.59 17.04 39.80 15.96Q41.02 14.88 41.02 13.32L41.02 13.32Q41.02 11.21 37.85 9.60L37.85 9.60Q37.68 9.50 37.10 9.23Q36.53 8.95 36.31 8.83Q36.10 8.71 35.60 8.45Q35.11 8.18 34.84 7.99Q34.56 7.80 34.18 7.54L34.18 7.54Q33.60 7.15 32.95 6.43L32.95 6.43Q32.04 5.33 32.04 3.83Q32.04 2.33 33.50 1.16Q34.97 0 36.95 0Q38.93 0 40.32 0.74Q41.71 1.49 41.71 2.42L41.71 2.42Q41.71 3 41.23 3.19L41.23 3.19Q41.06 3.24 40.80 3.24Q40.54 3.24 40.28 3.07Q40.03 2.90 39.71 2.62Q39.38 2.33 39.12 2.16L39.12 2.16Q38.40 1.68 37.15 1.68Q35.90 1.68 34.93 2.33Q33.96 2.98 33.96 3.92Q33.96 4.87 34.87 5.69L34.87 5.69Q35.69 6.41 37.44 7.36Q39.19 8.30 39.77 8.66L39.77 8.66Q41.18 9.50 42.06 10.72Q42.94 11.93 42.94 13.32L42.94 13.32Q42.94 15.53 41.22 17.12Q39.50 18.72 36.84 18.72Q34.18 18.72 32.64 17.33Q31.10 15.94 31.10 14.26Q31.10 12.58 31.99 11.65Q32.88 10.73 34.22 10.73Q35.57 10.73 36.29 11.40Q37.01 12.07 37.01 12.94Q37.01 13.80 36.55 14.35L36.55 14.35Q36.29 14.71 35.93 14.84ZM55.58 14.84Q55.22 14.98 54.98 14.86Q54.74 14.74 54.74 14.54Q54.74 14.35 54.86 14.10Q54.98 13.85 55.08 13.61L55.08 13.61Q55.32 13.03 54.89 12.72L54.89 12.72Q54.38 12.38 53.88 12.38Q53.38 12.38 52.93 12.80Q52.49 13.22 52.49 13.97L52.49 13.97Q52.49 15.05 53.54 16.04Q54.60 17.04 56.42 17.04Q58.25 17.04 59.46 15.96Q60.67 14.88 60.67 13.32L60.67 13.32Q60.67 11.21 57.50 9.60L57.50 9.60Q57.34 9.50 56.76 9.23Q56.18 8.95 55.97 8.83Q55.75 8.71 55.26 8.45Q54.77 8.18 54.49 7.99Q54.22 7.80 53.83 7.54L53.83 7.54Q53.26 7.15 52.61 6.43L52.61 6.43Q51.70 5.33 51.70 3.83Q51.70 2.33 53.16 1.16Q54.62 0 56.60 0Q58.58 0 59.98 0.74Q61.37 1.49 61.37 2.42L61.37 2.42Q61.37 3 60.89 3.19L60.89 3.19Q60.72 3.24 60.46 3.24Q60.19 3.24 59.94 3.07Q59.69 2.90 59.36 2.62Q59.04 2.33 58.78 2.16L58.78 2.16Q58.06 1.68 56.81 1.68Q55.56 1.68 54.59 2.33Q53.62 2.98 53.62 3.92Q53.62 4.87 54.53 5.69L54.53 5.69Q55.34 6.41 57.10 7.36Q58.85 8.30 59.42 8.66L59.42 8.66Q60.84 9.50 61.72 10.72Q62.59 11.93 62.59 13.32L62.59 13.32Q62.59 15.53 60.88 17.12Q59.16 18.72 56.50 18.72Q53.83 18.72 52.30 17.33Q50.76 15.94 50.76 14.26Q50.76 12.58 51.65 11.65Q52.54 10.73 53.88 10.73Q55.22 10.73 55.94 11.40Q56.66 12.07 56.66 12.94Q56.66 13.80 56.21 14.35L56.21 14.35Q55.94 14.71 55.58 14.84ZM74.30 15.89L74.30 15.89Q74.90 15.89 74.90 16.52Q74.90 17.16 73.51 17.95L73.51 17.95Q72.10 18.72 70.58 18.72L70.58 18.72Q68.09 18.72 66.38 16.87L66.38 16.87Q64.70 15.02 64.70 12.36Q64.70 9.70 66.38 7.85Q68.06 6 70.85 6L70.85 6Q72.34 6 73.51 6.68Q74.69 7.37 74.69 8.04Q74.69 8.71 74.21 8.90L74.21 8.90Q74.06 8.95 73.81 8.95Q73.56 8.95 73.18 8.62L73.18 8.62Q71.90 7.56 70.63 7.56L70.63 7.56Q68.98 7.56 67.73 8.95L67.73 8.95Q66.50 10.34 66.50 12.35Q66.50 14.35 67.76 15.76Q69.02 17.16 70.85 17.16L70.85 17.16Q72.29 17.16 73.61 16.20L73.61 16.20Q74.06 15.89 74.30 15.89ZM87.67 10.80L87.67 10.80L87.55 14.57L87.55 15.60Q87.60 16.58 88.03 16.78L88.03 16.78Q88.20 16.82 88.42 16.86Q88.63 16.90 88.72 16.94Q88.80 16.99 88.80 17.14L88.80 17.14Q88.80 17.76 88.40 18.18Q88.01 18.60 87.48 18.60L87.48 18.60Q86.59 18.60 86.23 17.90Q85.87 17.21 85.87 15.77L85.87 15.77L85.97 11.35Q85.97 9.70 85.26 8.70Q84.55 7.70 83.33 7.70Q82.10 7.70 80.96 9.06Q79.82 10.42 79.34 12.17L79.34 12.17L79.42 17.38Q79.42 18.60 78.50 18.60L78.50 18.60Q77.40 18.60 77.40 16.96Q77.40 15.31 77.88 12.17L77.88 12.17Q77.88 10.54 77.66 6.01Q77.45 1.49 77.45 1.13Q77.45 0.77 77.70 0.43Q77.95 0.10 78.23 0.10Q78.50 0.10 78.74 0.22L78.74 0.22Q79.32 0.48 79.32 1.15L79.32 1.15Q79.32 1.25 79.32 1.32L79.32 1.32L79.32 9.17Q81.07 6.12 83.64 6.12L83.64 6.12Q85.58 6.12 86.63 7.50Q87.67 8.88 87.67 10.80ZM92.47 12.38Q92.47 14.38 93.58 15.77Q94.68 17.16 96.35 17.16Q98.02 17.16 99.18 15.76Q100.34 14.35 100.34 12.36Q100.34 10.37 99.23 8.96Q98.11 7.56 96.47 7.56Q94.82 7.56 93.62 8.98L93.62 8.98Q92.47 10.39 92.47 12.38ZM92.35 16.88Q90.77 15.05 90.77 12.38Q90.77 9.72 92.38 7.86Q93.98 6 96.43 6Q98.88 6 100.46 7.84Q102.05 9.67 102.05 12.35Q102.05 15.02 100.43 16.87Q98.81 18.72 96.37 18.72Q93.94 18.72 92.35 16.88ZM105.96 12.38Q105.96 14.38 107.06 15.77Q108.17 17.16 109.84 17.16Q111.50 17.16 112.67 15.76Q113.83 14.35 113.83 12.36Q113.83 10.37 112.72 8.96Q111.60 7.56 109.96 7.56Q108.31 7.56 107.11 8.98L107.11 8.98Q105.96 10.39 105.96 12.38ZM105.84 16.88Q104.26 15.05 104.26 12.38Q104.26 9.72 105.86 7.86Q107.47 6 109.92 6Q112.37 6 113.95 7.84Q115.54 9.67 115.54 12.35Q115.54 15.02 113.92 16.87Q112.30 18.72 109.86 18.72Q107.42 18.72 105.84 16.88ZM120.24 1.32L120.24 1.32L120.12 9.36L120.24 17.40Q120.24 18.60 119.33 18.60Q118.42 18.60 118.42 17.40L118.42 17.40L118.54 9.36L118.42 1.32Q118.42 0.12 119.33 0.12Q120.24 0.12 120.24 1.32ZM132 14.90L132 14.90Q132 16.51 130.67 17.56Q129.34 18.60 127.49 18.60Q125.64 18.60 124.25 17.76L124.25 17.76Q122.88 16.90 122.88 16.06L122.88 16.06Q122.88 15.50 123.34 15.31Q123.79 15.12 124.03 15.36L124.03 15.36Q124.08 15.38 124.99 16.30L124.99 16.30Q125.26 16.54 125.98 16.79Q126.70 17.04 127.25 17.04L127.25 17.04Q128.59 17.04 129.43 16.49Q130.27 15.94 130.27 14.93L130.27 14.93Q130.27 13.66 127.87 12.84L127.87 12.84Q125.21 11.93 124.46 11.28L124.46 11.28Q124.10 10.97 123.80 10.45Q123.50 9.94 123.50 9.36L123.50 9.36Q123.50 8.06 124.69 7.09Q125.88 6.12 127.54 6.12Q129.19 6.12 130.22 6.68Q131.26 7.25 131.26 7.94L131.26 7.94Q131.26 8.74 130.42 8.74L130.42 8.74Q130.08 8.74 129.70 8.47L129.70 8.47Q128.54 7.68 127.48 7.68Q126.41 7.68 125.86 8.16L125.86 8.16Q125.21 8.62 125.21 9.23Q125.21 9.84 125.83 10.22Q126.46 10.61 127.87 11.17Q129.29 11.74 129.60 11.88L129.60 11.88Q130.66 12.34 131.33 13.13Q132 13.92 132 14.90Z" transform="translate(0, 52)"></path></svg>